<svg width="87" height="1728" viewBox="0 0 87 1728" fill="none" xmlns="http://www.w3.org/2000/svg">
<g clip-path="url(#clip0_1109_28363)">
<path d="M78.7687 71.7568H7.01221V143.513H78.7687V71.7568Z" fill="#FF6600"/>
<path d="M78.7687 716.757H7.01221V788.513H78.7687V716.757Z" fill="#FF6600"/>
<path d="M78.7687 1361.76H7.01221V1433.51H78.7687V1361.76Z" fill="#FF6600"/>
<path fill-rule="evenodd" clip-rule="evenodd" d="M7.01221 89.696C11.77 89.696 16.3329 87.8059 19.6971 84.4417C23.0613 81.0775 24.9513 76.5146 24.9513 71.7568H7.01221V89.696Z" fill="black"/>
<path fill-rule="evenodd" clip-rule="evenodd" d="M7.01221 734.696C11.77 734.696 16.3329 732.806 19.6971 729.442C23.0613 726.077 24.9513 721.515 24.9513 716.757H7.01221V734.696Z" fill="black"/>
<path fill-rule="evenodd" clip-rule="evenodd" d="M7.01221 1379.7C11.77 1379.7 16.3329 1377.81 19.6971 1374.44C23.0613 1371.08 24.9513 1366.51 24.9513 1361.76H7.01221V1379.7Z" fill="black"/>
<path fill-rule="evenodd" clip-rule="evenodd" d="M78.7687 71.757V0.000488281H7.01221C7.01221 19.0315 14.5722 37.283 28.0292 50.74C41.4861 64.1969 59.7377 71.757 78.7687 71.757Z" fill="#E9941A"/>
<path fill-rule="evenodd" clip-rule="evenodd" d="M78.7687 716.757V645H7.01221C7.01221 664.031 14.5722 682.283 28.0292 695.74C41.4861 709.197 59.7377 716.757 78.7687 716.757Z" fill="#E9941A"/>
<path fill-rule="evenodd" clip-rule="evenodd" d="M78.7687 1361.76V1290H7.01221C7.01221 1309.03 14.5722 1327.28 28.0292 1340.74C41.4861 1354.2 59.7377 1361.76 78.7687 1361.76Z" fill="#E9941A"/>
<mask id="mask0_1109_28363" style="mask-type:luminance" maskUnits="userSpaceOnUse" x="7" y="0" width="72" height="72">
<path d="M78.7658 71.7565V0H7.00928C7.00928 19.031 14.5693 37.2825 28.0263 50.7395C41.4832 64.1964 59.7348 71.7565 78.7658 71.7565Z" fill="white"/>
</mask>
<g mask="url(#mask0_1109_28363)">
<path d="M116.821 38.0571C137.838 17.0401 137.838 -17.0352 116.821 -38.0522C95.8039 -59.0692 61.7286 -59.0692 40.7116 -38.0522C19.6946 -17.0352 19.6946 17.0401 40.7116 38.0571C61.7286 59.0741 95.8039 59.0741 116.821 38.0571Z" fill="white"/>
<path d="M78.7681 35.8795C98.5831 35.8795 114.646 19.8163 114.646 0.00128555C114.646 -19.8137 98.5831 -35.877 78.7681 -35.877C58.9531 -35.877 42.8899 -19.8137 42.8899 0.00128555C42.8899 19.8163 58.9531 35.8795 78.7681 35.8795Z" fill="#FF6600"/>
<path d="M78.7671 17.9403C88.6746 17.9403 96.7062 9.90863 96.7062 0.00112915C96.7062 -9.90637 88.6746 -17.938 78.7671 -17.938C68.8596 -17.938 60.828 -9.90637 60.828 0.00112915C60.828 9.90863 68.8596 17.9403 78.7671 17.9403Z" fill="#E9941A"/>
</g>
<mask id="mask1_1109_28363" style="mask-type:luminance" maskUnits="userSpaceOnUse" x="7" y="645" width="72" height="72">
<path d="M78.7658 716.756V645H7.00928C7.00928 664.031 14.5693 682.283 28.0263 695.739C41.4832 709.196 59.7348 716.756 78.7658 716.756Z" fill="white"/>
</mask>
<g mask="url(#mask1_1109_28363)">
<path d="M116.821 683.057C137.838 662.04 137.838 627.965 116.821 606.948C95.8039 585.931 61.7286 585.931 40.7116 606.948C19.6946 627.965 19.6946 662.04 40.7116 683.057C61.7286 704.074 95.8039 704.074 116.821 683.057Z" fill="white"/>
<path d="M78.7681 680.88C98.5831 680.88 114.646 664.816 114.646 645.001C114.646 625.186 98.5831 609.123 78.7681 609.123C58.9531 609.123 42.8899 625.186 42.8899 645.001C42.8899 664.816 58.9531 680.88 78.7681 680.88Z" fill="#FF6600"/>
<path d="M78.7671 662.94C88.6746 662.94 96.7062 654.909 96.7062 645.001C96.7062 635.094 88.6746 627.062 78.7671 627.062C68.8596 627.062 60.828 635.094 60.828 645.001C60.828 654.909 68.8596 662.94 78.7671 662.94Z" fill="#E9941A"/>
</g>
<mask id="mask2_1109_28363" style="mask-type:luminance" maskUnits="userSpaceOnUse" x="7" y="1290" width="72" height="72">
<path d="M78.7658 1361.76V1290H7.00928C7.00928 1309.03 14.5693 1327.28 28.0263 1340.74C41.4832 1354.2 59.7348 1361.76 78.7658 1361.76Z" fill="white"/>
</mask>
<g mask="url(#mask2_1109_28363)">
<path d="M116.821 1328.06C137.838 1307.04 137.838 1272.96 116.821 1251.95C95.8039 1230.93 61.7286 1230.93 40.7116 1251.95C19.6946 1272.96 19.6946 1307.04 40.7116 1328.06C61.7286 1349.07 95.8039 1349.07 116.821 1328.06Z" fill="white"/>
<path d="M78.7681 1325.88C98.5831 1325.88 114.646 1309.82 114.646 1290C114.646 1270.19 98.5831 1254.12 78.7681 1254.12C58.9531 1254.12 42.8899 1270.19 42.8899 1290C42.8899 1309.82 58.9531 1325.88 78.7681 1325.88Z" fill="#FF6600"/>
<path d="M78.7671 1307.94C88.6746 1307.94 96.7062 1299.91 96.7062 1290C96.7062 1280.09 88.6746 1272.06 78.7671 1272.06C68.8596 1272.06 60.828 1280.09 60.828 1290C60.828 1299.91 68.8596 1307.94 78.7671 1307.94Z" fill="#E9941A"/>
</g>
<path d="M78.7687 143.525H7.01221V215.282H78.7687V143.525Z" fill="#FF6600"/>
<path d="M78.7687 788.525H7.01221V860.282H78.7687V788.525Z" fill="#FF6600"/>
<path d="M78.7687 1433.53H7.01221V1505.28H78.7687V1433.53Z" fill="#FF6600"/>
<path d="M42.8896 179.403H24.9504V197.342H42.8896V179.403Z" fill="#082B4F"/>
<path d="M42.8896 824.403H24.9504V842.342H42.8896V824.403Z" fill="#082B4F"/>
<path d="M42.8896 1469.4H24.9504V1487.34H42.8896V1469.4Z" fill="#082B4F"/>
<path d="M60.8305 179.403H42.8914V197.342H60.8305V179.403Z" fill="white"/>
<path d="M60.8305 824.403H42.8914V842.342H60.8305V824.403Z" fill="white"/>
<path d="M60.8305 1469.4H42.8914V1487.34H60.8305V1469.4Z" fill="white"/>
<path d="M42.8896 161.464H24.9504V179.403H42.8896V161.464Z" fill="white"/>
<path d="M42.8896 806.464H24.9504V824.403H42.8896V806.464Z" fill="white"/>
<path d="M42.8896 1451.46H24.9504V1469.4H42.8896V1451.46Z" fill="white"/>
<path d="M60.8305 161.464H42.8914V179.403H60.8305V161.464Z" fill="#082B4F"/>
<path d="M60.8305 806.464H42.8914V824.403H60.8305V806.464Z" fill="#082B4F"/>
<path d="M60.8305 1451.46H42.8914V1469.4H60.8305V1451.46Z" fill="#082B4F"/>
<path d="M78.7687 501.829H7.01221V573.585H78.7687V501.829Z" fill="#FF6600"/>
<path d="M78.7687 1146.83H7.01221V1218.59H78.7687V1146.83Z" fill="#FF6600"/>
<path fill-rule="evenodd" clip-rule="evenodd" d="M7.01221 519.814C11.77 519.814 16.3329 517.924 19.6971 514.56C23.0613 511.196 24.9513 506.633 24.9513 501.875H7.01221V519.814Z" fill="black"/>
<path fill-rule="evenodd" clip-rule="evenodd" d="M7.01221 1164.81C11.77 1164.81 16.3329 1162.92 19.6971 1159.56C23.0613 1156.2 24.9513 1151.63 24.9513 1146.88H7.01221V1164.81Z" fill="black"/>
<path fill-rule="evenodd" clip-rule="evenodd" d="M79.0956 501.828V430.072H7.33911C7.33911 449.103 14.8991 467.354 28.3561 480.811C41.813 494.268 60.0646 501.828 79.0956 501.828Z" fill="#E9941A"/>
<path fill-rule="evenodd" clip-rule="evenodd" d="M78.7595 1146.83V1075.07H7.32373C7.32373 1094.1 14.85 1112.35 28.2468 1125.81C41.6436 1139.27 59.8135 1146.83 78.7595 1146.83Z" fill="#E9941A"/>
<mask id="mask3_1109_28363" style="mask-type:luminance" maskUnits="userSpaceOnUse" x="7" y="430" width="73" height="72">
<path d="M79.0927 501.828V430.072H7.33618C7.33618 449.103 14.8962 467.354 28.3532 480.811C41.8101 494.268 60.0617 501.828 79.0927 501.828Z" fill="white"/>
</mask>
<g mask="url(#mask3_1109_28363)">
<path d="M91.5318 482.448C120.449 475.575 138.319 446.562 131.446 417.645C124.573 388.728 95.5595 370.858 66.6426 377.731C37.7256 384.604 19.8555 413.617 26.7285 442.534C33.6015 471.451 62.6149 489.321 91.5318 482.448Z" fill="white"/>
<path d="M79.0932 465.95C98.9082 465.95 114.971 449.887 114.971 430.072C114.971 410.257 98.9082 394.194 79.0932 394.194C59.2782 394.194 43.215 410.257 43.215 430.072C43.215 449.887 59.2782 465.95 79.0932 465.95Z" fill="#FF6600"/>
<path d="M79.095 448.011C89.0025 448.011 97.0341 439.979 97.0341 430.071C97.0341 420.164 89.0025 412.132 79.095 412.132C69.1875 412.132 61.1559 420.164 61.1559 430.071C61.1559 439.979 69.1875 448.011 79.095 448.011Z" fill="#E9941A"/>
</g>
<mask id="mask4_1109_28363" style="mask-type:luminance" maskUnits="userSpaceOnUse" x="7" y="1075" width="73" height="72">
<path d="M79.0802 1146.83V1075.07H7.32373C7.32373 1094.1 14.8838 1112.35 28.3407 1125.81C41.7977 1139.27 60.0492 1146.83 79.0802 1146.83Z" fill="white"/>
</mask>
<g mask="url(#mask4_1109_28363)">
<path d="M91.4253 1127.45C120.31 1120.58 138.16 1091.56 131.295 1062.65C124.43 1033.73 95.4485 1015.86 66.5638 1022.73C37.6792 1029.6 19.829 1058.62 26.6943 1087.53C33.5596 1116.45 62.5407 1134.32 91.4253 1127.45Z" fill="white"/>
<path d="M79.0006 1110.95C98.7935 1110.95 114.839 1094.89 114.839 1075.07C114.839 1055.26 98.7935 1039.19 79.0006 1039.19C59.2078 1039.19 43.1625 1055.26 43.1625 1075.07C43.1625 1094.89 59.2078 1110.95 79.0006 1110.95Z" fill="#FF6600"/>
<path d="M79.0023 1093.01C88.8987 1093.01 96.9214 1084.98 96.9214 1075.07C96.9214 1065.16 88.8987 1057.13 79.0023 1057.13C69.1059 1057.13 61.0833 1065.16 61.0833 1075.07C61.0833 1084.98 69.1059 1093.01 79.0023 1093.01Z" fill="#E9941A"/>
</g>
<path d="M78.7658 215.037H7.00928V286.793H78.7658V215.037Z" fill="#080B4F"/>
<path d="M78.7679 860.037H7.01135V931.793H78.7679V860.037Z" fill="#080B4F"/>
<path d="M79.2435 1505.04H7.48694V1576.79H79.2435V1505.04Z" fill="#080B4F"/>
<path fill-rule="evenodd" clip-rule="evenodd" d="M78.7658 215.037C78.7658 224.552 74.9858 233.678 68.2573 240.406C61.5288 247.135 52.403 250.915 42.8875 250.915C33.372 250.915 24.2462 247.135 17.5178 240.406C10.7893 233.678 7.00928 224.552 7.00928 215.037H78.7658Z" fill="#FF6600"/>
<path fill-rule="evenodd" clip-rule="evenodd" d="M78.7679 860.037C78.7679 869.552 74.9879 878.678 68.2594 885.406C61.5309 892.135 52.4051 895.915 42.8896 895.915C33.3741 895.915 24.2483 892.135 17.5198 885.406C10.7914 878.678 7.01135 869.552 7.01135 860.037H78.7679Z" fill="#FF6600"/>
<path fill-rule="evenodd" clip-rule="evenodd" d="M78.7565 1505.04C78.7565 1514.55 74.9765 1523.68 68.248 1530.41C61.5195 1537.13 52.3938 1540.91 42.8783 1540.91C33.3628 1540.91 24.237 1537.13 17.5085 1530.41C10.78 1523.68 7 1514.55 7 1505.04H78.7565Z" fill="#FF6600"/>
<path d="M42.887 268.854C47.844 268.854 51.8624 264.835 51.8624 259.878C51.8624 254.921 47.844 250.903 42.887 250.903C37.93 250.903 33.9116 254.921 33.9116 259.878C33.9116 264.835 37.93 268.854 42.887 268.854Z" fill="white"/>
<path d="M42.8891 913.854C47.8461 913.854 51.8645 909.835 51.8645 904.878C51.8645 899.921 47.8461 895.903 42.8891 895.903C37.9321 895.903 33.9137 899.921 33.9137 904.878C33.9137 909.835 37.9321 913.854 42.8891 913.854Z" fill="white"/>
<path d="M43.3647 1558.85C48.3217 1558.85 52.3401 1554.84 52.3401 1549.88C52.3401 1544.92 48.3217 1540.9 43.3647 1540.9C38.4077 1540.9 34.3893 1544.92 34.3893 1549.88C34.3893 1554.84 38.4077 1558.85 43.3647 1558.85Z" fill="white"/>
<path fill-rule="evenodd" clip-rule="evenodd" d="M7.32373 322.671H43.202V322.788C43.1679 332.281 39.3729 341.374 32.6481 348.075C25.9233 354.776 16.817 358.538 7.32373 358.538V322.671Z" fill="#E9941A"/>
<path fill-rule="evenodd" clip-rule="evenodd" d="M7.32373 967.671H43.202V967.788C43.1679 977.281 39.3729 986.374 32.6481 993.075C25.9233 999.776 16.817 1003.54 7.32373 1003.54V967.671Z" fill="#E9941A"/>
<path fill-rule="evenodd" clip-rule="evenodd" d="M7.32373 1612.67H43.202V1612.79C43.1679 1622.28 39.3729 1631.37 32.6481 1638.07C25.9233 1644.78 16.817 1648.54 7.32373 1648.54V1612.67Z" fill="#E9941A"/>
<path fill-rule="evenodd" clip-rule="evenodd" d="M79.0809 358.537C69.5856 358.537 60.4775 354.773 53.7524 348.07C47.0272 341.367 43.2336 332.271 43.2026 322.776V322.659H79.0809V358.537Z" fill="black"/>
<path fill-rule="evenodd" clip-rule="evenodd" d="M79.0809 1003.54C69.5856 1003.54 60.4775 999.773 53.7524 993.07C47.0272 986.367 43.2336 977.271 43.2026 967.776V967.659H79.0809V1003.54Z" fill="black"/>
<path fill-rule="evenodd" clip-rule="evenodd" d="M79.0809 1648.54C69.5856 1648.54 60.4775 1644.77 53.7524 1638.07C47.0272 1631.37 43.2336 1622.27 43.2026 1612.78V1612.66H79.0809V1648.54Z" fill="black"/>
<path fill-rule="evenodd" clip-rule="evenodd" d="M79.0809 322.671H43.2026V322.554C43.2303 313.086 47.0005 304.014 53.691 297.314C60.3814 290.615 69.4494 286.833 78.9173 286.793H79.0809V322.671Z" fill="#E9941A"/>
<path fill-rule="evenodd" clip-rule="evenodd" d="M79.0809 967.671H43.2026V967.554C43.2303 958.086 47.0005 949.014 53.691 942.314C60.3814 935.615 69.4494 931.833 78.9173 931.793H79.0809V967.671Z" fill="#E9941A"/>
<path fill-rule="evenodd" clip-rule="evenodd" d="M79.0809 1612.67H43.2026V1612.55C43.2303 1603.09 47.0005 1594.01 53.691 1587.31C60.3814 1580.62 69.4494 1576.83 78.9173 1576.79H79.0809V1612.67Z" fill="#E9941A"/>
<path fill-rule="evenodd" clip-rule="evenodd" d="M7.48733 286.793C16.9552 286.833 26.0232 290.615 32.7136 297.314C39.4041 304.014 43.1743 313.086 43.202 322.554V322.671H7.32373V286.793H7.48733Z" fill="black"/>
<path fill-rule="evenodd" clip-rule="evenodd" d="M7.48733 931.793C16.9552 931.833 26.0232 935.615 32.7136 942.314C39.4041 949.014 43.1743 958.086 43.202 967.554V967.671H7.32373V931.793H7.48733Z" fill="black"/>
<path fill-rule="evenodd" clip-rule="evenodd" d="M7.48733 1576.79C16.9552 1576.83 26.0232 1580.62 32.7136 1587.31C39.4041 1594.01 43.1743 1603.09 43.202 1612.55V1612.67H7.32373V1576.79H7.48733Z" fill="black"/>
<path d="M78.7687 573.585H7.01221V645.341H78.7687V573.585Z" fill="#FF6600"/>
<path d="M78.7687 1218.58H7.01221V1290.34H78.7687V1218.58Z" fill="#FF6600"/>
<path d="M42.8896 609.475H24.9504V627.414H42.8896V609.475Z" fill="#082B4F"/>
<path d="M42.8896 1254.47H24.9504V1272.41H42.8896V1254.47Z" fill="#082B4F"/>
<path d="M60.8305 609.475H42.8914V627.414H60.8305V609.475Z" fill="white"/>
<path d="M60.8305 1254.47H42.8914V1272.41H60.8305V1254.47Z" fill="white"/>
<path d="M42.8896 591.524H24.9504V609.463H42.8896V591.524Z" fill="white"/>
<path d="M42.8896 1236.52H24.9504V1254.46H42.8896V1236.52Z" fill="white"/>
<path d="M60.8305 591.524H42.8914V609.463H60.8305V591.524Z" fill="#082B4F"/>
<path d="M60.8305 1236.52H42.8914V1254.46H60.8305V1236.52Z" fill="#082B4F"/>
<path d="M79.0802 358.549H7.32373V430.306H79.0802V358.549Z" fill="#E9941A"/>
<path d="M79.0802 1003.55H7.32373V1075.31H79.0802V1003.55Z" fill="#E9941A"/>
<path d="M79.0802 1648.55H7.32373V1720.31H79.0802V1648.55Z" fill="#E9941A"/>
<path d="M51.4665 429.364C70.7468 424.793 82.6704 405.456 78.0985 386.176C73.5266 366.896 54.1905 354.972 34.9102 359.544C15.6298 364.116 3.70625 383.452 8.27815 402.732C12.85 422.013 32.1861 433.936 51.4665 429.364Z" fill="#080B4F"/>
<path d="M51.4665 1074.36C70.7468 1069.79 82.6704 1050.46 78.0985 1031.18C73.5266 1011.9 54.1905 999.972 34.9102 1004.54C15.6298 1009.12 3.70625 1028.45 8.27815 1047.73C12.85 1067.01 32.1861 1078.94 51.4665 1074.36Z" fill="#080B4F"/>
<path d="M51.4665 1719.36C70.7468 1714.79 82.6704 1695.46 78.0985 1676.18C73.5266 1656.9 54.1905 1644.97 34.9102 1649.54C15.6298 1654.12 3.70625 1673.45 8.27815 1692.73C12.85 1712.01 32.1861 1723.94 51.4665 1719.36Z" fill="#080B4F"/>
<path d="M44.9789 412.266C54.8384 411.292 62.0418 402.51 61.0681 392.65C60.0945 382.791 51.3124 375.588 41.4528 376.561C31.5933 377.535 24.3899 386.317 25.3636 396.177C26.3373 406.036 35.1193 413.239 44.9789 412.266Z" fill="white"/>
<path d="M44.9789 1057.27C54.8384 1056.29 62.0418 1047.51 61.0681 1037.65C60.0945 1027.79 51.3124 1020.59 41.4528 1021.56C31.5933 1022.53 24.3899 1031.32 25.3636 1041.18C26.3373 1051.04 35.1193 1058.24 44.9789 1057.27Z" fill="white"/>
<path d="M44.9789 1702.27C54.8384 1701.29 62.0418 1692.51 61.0681 1682.65C60.0945 1672.79 51.3124 1665.59 41.4528 1666.56C31.5933 1667.53 24.3899 1676.32 25.3636 1686.18C26.3373 1696.04 35.1193 1703.24 44.9789 1702.27Z" fill="white"/>
<path fill-rule="evenodd" clip-rule="evenodd" d="M43.2011 389.063C44.9658 385.837 46.7071 384.225 50.2131 384.225C51.9948 384.164 53.7288 384.807 55.0407 386.014C56.3526 387.221 57.1372 388.895 57.2252 390.676C57.2252 397.127 50.2132 403.531 43.1193 410.029C36.1073 403.578 29.0134 397.173 29.0134 390.676C29.0984 388.894 29.8821 387.218 31.1947 386.01C32.5073 384.803 34.243 384.161 36.0255 384.225C39.6717 384.248 41.4364 385.837 43.2011 389.063Z" fill="#FF6600"/>
<path fill-rule="evenodd" clip-rule="evenodd" d="M43.2011 1034.06C44.9658 1030.84 46.7071 1029.22 50.2131 1029.22C51.9948 1029.16 53.7288 1029.81 55.0407 1031.01C56.3526 1032.22 57.1372 1033.9 57.2252 1035.68C57.2252 1042.13 50.2132 1048.53 43.1193 1055.03C36.1073 1048.58 29.0134 1042.17 29.0134 1035.68C29.0984 1033.89 29.8821 1032.22 31.1947 1031.01C32.5073 1029.8 34.243 1029.16 36.0255 1029.22C39.6717 1029.25 41.4364 1030.84 43.2011 1034.06Z" fill="#FF6600"/>
<path fill-rule="evenodd" clip-rule="evenodd" d="M43.2011 1679.06C44.9658 1675.84 46.7071 1674.22 50.2131 1674.22C51.9948 1674.16 53.7288 1674.81 55.0407 1676.01C56.3526 1677.22 57.1372 1678.9 57.2252 1680.68C57.2252 1687.13 50.2132 1693.53 43.1193 1700.03C36.1073 1693.58 29.0134 1687.17 29.0134 1680.68C29.0984 1678.89 29.8821 1677.22 31.1947 1676.01C32.5073 1674.8 34.243 1674.16 36.0255 1674.22C39.6717 1674.25 41.4364 1675.84 43.2011 1679.06Z" fill="#FF6600"/>
<path fill-rule="evenodd" clip-rule="evenodd" d="M79.0929 72L78.7687 71.7568L29.9299 108.336L7.01221 125.492V125.656C7.0307 130.386 8.91797 134.918 12.2629 138.263C15.6078 141.607 20.1392 143.495 24.8695 143.513H25.0331L42.3062 130.155L78.7687 101.944L78.9999 102.122V72H79.0929Z" fill="white"/>
<path fill-rule="evenodd" clip-rule="evenodd" d="M79.0929 717L78.7687 716.757L29.9299 753.336L7.01221 770.492V770.656C7.03067 775.386 8.91799 779.918 12.2629 783.263C15.6078 786.608 20.1392 788.495 24.8695 788.513H25.0332L42.3061 775.155L78.7687 746.944L78.9999 747.122V717H79.0929Z" fill="white"/>
<path fill-rule="evenodd" clip-rule="evenodd" d="M79.0929 1362L78.7687 1361.76L29.9299 1398.34L7.01221 1415.49V1415.66C7.03067 1420.39 8.91799 1424.92 12.2629 1428.26C15.6078 1431.61 20.1392 1433.49 24.8695 1433.51H25.0332L42.3061 1420.16L78.7687 1391.94L78.9999 1392.12V1362H79.0929Z" fill="white"/>
<path fill-rule="evenodd" clip-rule="evenodd" d="M79.0135 502L78.7687 501.816L29.9299 538.396L7.01221 555.552V555.716C7.03674 560.444 8.92603 564.972 12.2697 568.315C15.6132 571.659 20.1411 573.548 24.8695 573.573H25.0331L42.3062 560.215L78.7687 532.003L78.9999 532.181V502H79.0135Z" fill="white"/>
<path fill-rule="evenodd" clip-rule="evenodd" d="M79.0135 1147L78.7687 1146.82L29.9299 1183.4L7.01221 1200.55V1200.72C7.03677 1205.44 8.92604 1209.97 12.2696 1213.32C15.6132 1216.66 20.141 1218.55 24.8695 1218.57H25.0332L42.3061 1205.21L78.7687 1177L78.9999 1177.18V1147H79.0135Z" fill="white"/>
</g>
<defs>
<clipPath id="clip0_1109_28363">
<rect width="86.3767" height="1727.64" fill="white"/>
</clipPath>
</defs>
</svg>
